<svg xmlns="http://www.w3.org/2000/svg" xmlns:xlink="http://www.w3.org/1999/xlink" width="23" height="19" viewBox="0 0 23 19">
  <defs>
    <linearGradient id="linear-gradient" x1="0.5" x2="1.945" y2="3.524" gradientUnits="objectBoundingBox">
      <stop offset="0" stop-color="#2dc5bb"/>
      <stop offset="1" stop-color="#17635e"/>
    </linearGradient>
    <linearGradient id="linear-gradient-2" x1="0.785" y1="0.774" x2="-0.637" y2="-1.838" gradientUnits="objectBoundingBox">
      <stop offset="0"/>
      <stop offset="1" stop-color="#545454"/>
    </linearGradient>
  </defs>
  <g id="Group_791" data-name="Group 791" transform="translate(0.115 -0.461)">
    <circle id="Ellipse_314" data-name="Ellipse 314" cx="5.5" cy="5.5" r="5.5" transform="translate(11.885 8.461)" fill="#008465"/>
    <g id="Group_764" data-name="Group 764" transform="translate(0 0)">
      <path id="Subtraction_51" data-name="Subtraction 51" d="M11.44,14H0V0H22V9.713A6.168,6.168,0,0,0,11.44,14Z" transform="translate(-0.115 0.461)" fill="url(#linear-gradient)"/>
      <rect id="Rectangle_2015" data-name="Rectangle 2015" width="22" height="4" transform="translate(-0.115 1.461)" fill="url(#linear-gradient-2)"/>
      <path id="Path_436" data-name="Path 436" d="M3.713-2.171a1.293,1.293,0,0,1-.166.633,1.371,1.371,0,0,1-.488.5,1.624,1.624,0,0,1-.772.228v.561H1.913V-.807a1.726,1.726,0,0,1-1.025-.4,1.157,1.157,0,0,1-.4-.89h.672a.866.866,0,0,0,.218.505.874.874,0,0,0,.537.27V-3.057A4.926,4.926,0,0,1,1.165-3.3a1.223,1.223,0,0,1-.485-.388,1.135,1.135,0,0,1-.2-.706,1.217,1.217,0,0,1,.391-.928,1.62,1.62,0,0,1,1.042-.408V-6.3h.374v.575a1.549,1.549,0,0,1,.948.377,1.3,1.3,0,0,1,.415.855H2.979a.814.814,0,0,0-.215-.44.866.866,0,0,0-.478-.26v1.689a5.49,5.49,0,0,1,.744.239,1.165,1.165,0,0,1,.485.384A1.162,1.162,0,0,1,3.713-2.171ZM1.124-4.428a.661.661,0,0,0,.2.519,1.554,1.554,0,0,0,.588.3v-1.6a.958.958,0,0,0-.575.232A.71.71,0,0,0,1.124-4.428ZM2.287-1.319a.9.9,0,0,0,.585-.27.778.778,0,0,0,.211-.547.661.661,0,0,0-.208-.523,1.525,1.525,0,0,0-.588-.294Z" transform="translate(15.211 17.291)" fill="#fff"/>
    </g>
  </g>
</svg>
