<svg xmlns="http://www.w3.org/2000/svg" width="19.648" height="21.294" viewBox="0 0 19.648 21.294">
  <g id="Group_3218" data-name="Group 3218" transform="translate(-1034.176 -13.436)">
    <g id="Group_3216" data-name="Group 3216">
      <path id="Path_456_-_Outline" data-name="Path 456 - Outline" d="M6.594,2.6H21.253a2.5,2.5,0,0,1,2.494,2.494V17.659a2.5,2.5,0,0,1-2.494,2.494H17.664l-3.74,3.74-3.74-3.74H6.594A2.5,2.5,0,0,1,4.1,17.659V5.094A2.5,2.5,0,0,1,6.594,2.6ZM21.253,19.353a1.7,1.7,0,0,0,1.694-1.694V5.094A1.7,1.7,0,0,0,21.253,3.4H6.594A1.7,1.7,0,0,0,4.9,5.094V17.659a1.7,1.7,0,0,0,1.694,1.694h3.921l3.409,3.409,3.409-3.409ZM6.194,4.694H21.653V18.059H16.8l-2.873,2.873L11.05,18.059H6.194Zm14.659.8H6.994V17.259h4.388L13.924,19.8l2.542-2.542h4.388Z" transform="translate(1030.076 10.836)" fill="#fff"/>
      <path id="Path_457" data-name="Path 457" d="M10.5,10.5H20.971v2.094H10.5Zm0,4.188h7.33v2.094H10.5Z" transform="translate(1028.265 8.571)"/>
    </g>
    <g id="Group_3217" data-name="Group 3217">
      <path id="Path_456" data-name="Path 456" d="M6.594,3A2.1,2.1,0,0,0,4.5,5.094V17.659a2.1,2.1,0,0,0,2.094,2.094h3.755l3.575,3.575L17.5,19.753h3.755a2.1,2.1,0,0,0,2.094-2.094V5.094A2.1,2.1,0,0,0,21.253,3ZM21.253,17.659H16.632l-2.708,2.708-2.708-2.708H6.594V5.094H21.253Z" transform="translate(1030.076 10.836)"/>
      <path id="Path_457_-_Outline" data-name="Path 457 - Outline" d="M10,10H21.471v3.094H10Zm10.471,1H11v1.094h9.471ZM10,14.188h8.33v3.094H10Zm7.33,1H11v1.094h6.33Z" transform="translate(1028.265 8.571)" fill="#fff"/>
    </g>
  </g>
</svg>
