<svg xmlns="http://www.w3.org/2000/svg" width="19" height="19" viewBox="0 0 19 19">
  <g id="Group_860" data-name="Group 860" transform="translate(-1117.162 -658.162)">
    <path id="Path_493" data-name="Path 493" d="M1,0H4A1,1,0,0,1,5,1V4A1,1,0,0,1,4,5H1A1,1,0,0,1,0,4V1A1,1,0,0,1,1,0Z" transform="translate(1117.162 658.162)" fill="#003d65"/>
    <path id="Path_492" data-name="Path 492" d="M1,0H4A1,1,0,0,1,5,1V4A1,1,0,0,1,4,5H1A1,1,0,0,1,0,4V1A1,1,0,0,1,1,0Z" transform="translate(1117.162 665.162)" fill="#003d65"/>
    <path id="Path_491" data-name="Path 491" d="M1,0H4A1,1,0,0,1,5,1V4A1,1,0,0,1,4,5H1A1,1,0,0,1,0,4V1A1,1,0,0,1,1,0Z" transform="translate(1117.162 672.162)" fill="#003d65"/>
    <path id="Path_490" data-name="Path 490" d="M1,0H4A1,1,0,0,1,5,1V4A1,1,0,0,1,4,5H1A1,1,0,0,1,0,4V1A1,1,0,0,1,1,0Z" transform="translate(1124.162 658.162)" fill="#003d65"/>
    <path id="Path_489" data-name="Path 489" d="M1,0H4A1,1,0,0,1,5,1V4A1,1,0,0,1,4,5H1A1,1,0,0,1,0,4V1A1,1,0,0,1,1,0Z" transform="translate(1124.162 665.162)" fill="#003d65"/>
    <path id="Path_488" data-name="Path 488" d="M1,0H4A1,1,0,0,1,5,1V4A1,1,0,0,1,4,5H1A1,1,0,0,1,0,4V1A1,1,0,0,1,1,0Z" transform="translate(1124.162 672.162)" fill="#003d65"/>
    <path id="Path_487" data-name="Path 487" d="M1,0H4A1,1,0,0,1,5,1V4A1,1,0,0,1,4,5H1A1,1,0,0,1,0,4V1A1,1,0,0,1,1,0Z" transform="translate(1131.162 658.162)" fill="#003d65"/>
    <path id="Path_486" data-name="Path 486" d="M1,0H4A1,1,0,0,1,5,1V4A1,1,0,0,1,4,5H1A1,1,0,0,1,0,4V1A1,1,0,0,1,1,0Z" transform="translate(1131.162 665.162)" fill="#003d65"/>
    <path id="Path_485" data-name="Path 485" d="M1,0H4A1,1,0,0,1,5,1V4A1,1,0,0,1,4,5H1A1,1,0,0,1,0,4V1A1,1,0,0,1,1,0Z" transform="translate(1131.162 672.162)" fill="#003d65"/>
  </g>
</svg>
