<svg xmlns="http://www.w3.org/2000/svg" width="17.644" height="21.002" viewBox="0 0 17.644 21.002">
  <g id="notification-new" transform="translate(-2.481 -0.828)">
    <path id="Path_454" data-name="Path 454" d="M17.358,12.85V10.967H16.064v2.173a.7.7,0,0,0,.194.507L18,15.6V16.76H3.776V15.6l1.747-1.956a.7.7,0,0,0,.194-.507V9.518c0-3.2,2.316-5.794,5.174-5.794a4.694,4.694,0,0,1,2.586.789V2.855a5.758,5.758,0,0,0-1.94-.579V.828H10.243V2.276C6.948,2.7,4.45,5.8,4.423,9.518V12.85L2.676,14.805a.7.7,0,0,0-.194.507v2.173a.728.728,0,0,0,.177.526.573.573,0,0,0,.47.2H7.656A3.444,3.444,0,0,0,10.89,21.83a3.444,3.444,0,0,0,3.234-3.621h4.527a.573.573,0,0,0,.47-.2.728.728,0,0,0,.177-.526V15.312a.7.7,0,0,0-.194-.507ZM10.89,20.381a2.066,2.066,0,0,1-1.94-2.173h3.88A2.066,2.066,0,0,1,10.89,20.381Z" transform="translate(0)"/>
    <path id="Path_455" data-name="Path 455" d="M24.828,6.621a3.31,3.31,0,1,1-3.31-3.31A3.31,3.31,0,0,1,24.828,6.621Z" transform="translate(-4.703)" fill="#e20000"/>
  </g>
</svg>
