<svg id="Report" xmlns="http://www.w3.org/2000/svg" xmlns:xlink="http://www.w3.org/1999/xlink" width="21.672" height="27.691" viewBox="0 0 21.672 27.691">
  <defs>
    <linearGradient id="linear-gradient" x1="0.584" y1="-0.078" x2="1.326" y2="1.599" gradientUnits="objectBoundingBox">
      <stop offset="0" stop-color="#5cc0dc"/>
      <stop offset="1" stop-color="#008fb7"/>
    </linearGradient>
  </defs>
  <path id="Path_409" data-name="Path 409" d="M1.2,0H20.468a1.2,1.2,0,0,1,1.2,1.2V22.876a1.2,1.2,0,0,1-1.2,1.2H1.2a1.2,1.2,0,0,1-1.2-1.2V1.2A1.2,1.2,0,0,1,1.2,0Z" transform="translate(0 3.612)" fill="#005288"/>
  <g id="Path_410" data-name="Path 410" transform="translate(0 2.409)" fill="#fff">
    <path d="M 20.46780967712402 23.98033905029297 L 1.203990340232849 23.98033905029297 C 0.5952503085136414 23.98033905029297 0.1000003069639206 23.48507881164551 0.1000003069639206 22.87631988525391 L 0.1000003069639206 1.204019665718079 C 0.1000003069639206 0.5952597260475159 0.5952503085136414 0.09999971836805344 1.203990340232849 0.09999971836805344 L 20.46780967712402 0.09999971836805344 C 21.0765495300293 0.09999971836805344 21.57180023193359 0.5952597260475159 21.57180023193359 1.204019665718079 L 21.57180023193359 22.87631988525391 C 21.57180023193359 23.48507881164551 21.0765495300293 23.98033905029297 20.46780967712402 23.98033905029297 Z" stroke="none"/>
    <path d="M 1.203990936279297 0.1999988555908203 C 0.650390625 0.1999988555908203 0.2000007629394531 0.6504001617431641 0.2000007629394531 1.204019546508789 L 0.2000007629394531 22.87631988525391 C 0.2000007629394531 23.42993927001953 0.650390625 23.88034057617188 1.203990936279297 23.88034057617188 L 20.46780967712402 23.88034057617188 C 21.02140998840332 23.88034057617188 21.47179985046387 23.42993927001953 21.47179985046387 22.87631988525391 L 21.47179985046387 1.204019546508789 C 21.47179985046387 0.6504001617431641 21.02140998840332 0.1999988555908203 20.46780967712402 0.1999988555908203 L 1.203990936279297 0.1999988555908203 M 1.203990936279297 0 L 20.46780967712402 0 C 21.13276100158691 0 21.67180061340332 0.5390605926513672 21.67180061340332 1.204019546508789 L 21.67180061340332 22.87631988525391 C 21.67180061340332 23.54127883911133 21.13276100158691 24.0803394317627 20.46780967712402 24.0803394317627 L 1.203990936279297 24.0803394317627 C 0.5390396118164062 24.0803394317627 0 23.54127883911133 0 22.87631988525391 L 0 1.204019546508789 C 0 0.5390605926513672 0.5390396118164062 0 1.203990936279297 0 Z" stroke="none" fill="#101010"/>
  </g>
  <path id="Path_411" data-name="Path 411" d="M1.2,0H20.468a1.2,1.2,0,0,1,1.2,1.2V22.876a1.2,1.2,0,0,1-1.2,1.2H1.2a1.2,1.2,0,0,1-1.2-1.2V1.2A1.2,1.2,0,0,1,1.2,0Z" transform="translate(0 1.203)" fill="url(#linear-gradient)"/>
  <path id="Path_419" data-name="Path 419" d="M1.2,0a1.2,1.2,0,0,1,1.2,1.2v1.2A1.2,1.2,0,0,1,0,2.408V1.2A1.2,1.2,0,0,1,1.2,0Z" transform="translate(2.409 0)" fill="#016481"/>
  <path id="Path_417" data-name="Path 417" d="M1.2,0a1.2,1.2,0,0,1,1.2,1.2v1.2A1.2,1.2,0,0,1,0,2.408V1.2A1.2,1.2,0,0,1,1.2,0Z" transform="translate(7.224 0)" fill="#016481"/>
  <path id="Path_416" data-name="Path 416" d="M1.2,0a1.2,1.2,0,0,1,1.2,1.2v1.2A1.2,1.2,0,0,1,0,2.408V1.2A1.2,1.2,0,0,1,1.2,0Z" transform="translate(12.039 0)" fill="#016481"/>
  <path id="Path_412" data-name="Path 412" d="M1.2,0a1.2,1.2,0,0,1,1.2,1.2v1.2A1.2,1.2,0,0,1,0,2.408V1.2A1.2,1.2,0,0,1,1.2,0Z" transform="translate(16.856 0)" fill="#016481"/>
  <path id="Path_413" data-name="Path 413" d="M0,0H16.856V1.2H0Z" transform="translate(2.409 8.427)" fill="#016481"/>
  <path id="Path_414" data-name="Path 414" d="M0,0H16.856V1.2H0Z" transform="translate(2.409 10.836)" fill="#016481"/>
  <path id="Path_415" data-name="Path 415" d="M0,0H16.856V1.2H0Z" transform="translate(2.409 13.244)" fill="#016481"/>
  <path id="Path_418" data-name="Path 418" d="M0,0H7.224V1.2H0Z" transform="translate(2.409 15.653)" fill="#016481"/>
</svg>
